<svg xmlns="http://www.w3.org/2000/svg" viewBox="0 0 256 257">
  <defs>
    <linearGradient id="gradient1" x1="0%" y1="0%" x2="100%" y2="100%">
      <stop offset="0%" stop-color="#FF9ED8"/>
      <stop offset="100%" stop-color="#FF4795"/>
    </linearGradient>
    <linearGradient id="gradient2" x1="43%" y1="2%" x2="50%" y2="89%">
      <stop offset="0%" stop-color="#FFE083"/>
      <stop offset="8%" stop-color="#FFCC35"/>
      <stop offset="100%" stop-color="#FF8800"/>
    </linearGradient>
  </defs>
  
  <!-- Food shape (stylized from original shapes) -->
  <path fill="url(#gradient1)" d="M205 80c-10-15-90-40-150-20c-20 10-40 40-30 80c10 40 40 70 100 90c20 5 60 5 80-10c30-20 50-60 40-100c-5-20-20-20-40-40z"/>
  
  <!-- Fork icon (modified from original path) -->
  <path fill="url(#gradient2)" d="M160 40c-5 2-10 5-15 10l-50 90c-2 4 1 8 5 7l20-5c2-1 4 1 3 3l-7 36c-1 3 2 5 4 4l15-4c2-1 4 1 4 3l-12 50c-1 4 4 6 6 3l70-140c1-2-1-5-3-4l-25 5c-2 0-4-2-3-4l15-50c1-2-1-5-4-4z"/>
  
  <!-- Text in center -->
  <text x="128" y="140" font-family="Arial, sans-serif" font-size="36" font-weight="bold" text-anchor="middle" fill="#FFFFFF">KHANA</text>
</svg>